# xmcd
#
# Track frame offsets: 
#        150
#        22015
#        41577
#        72847
#        96440
#        126252
#        148900
#        171135
#        188992
#        215717
#        231430
#
# Disc length: 3528 seconds
#
# Revision: 0
# Processed by: cddbd v1.5.1PL0 Copyright (c) Steve Scherf et al.
# Submitted via: ExactAudioCopy v0.95a5
#
DISCID=ad0dc60b
DTITLE=Terry Evans - Fire In The Feeling 
DYEAR=2005
DGENRE=Blues
TTITLE0=Uphill Climb (To The Bottom)
TTITLE1=Nothing Wrong With Texas (That Leaving Won't Fix)
TTITLE2=My Baby Joined The Army
TTITLE3=Let's Get Gone
TTITLE4=Turn On Your Lovelight
TTITLE5=I'll Be Your Shelter (In The Time Of The Storm)
TTITLE6=Discover Me
TTITLE7=I Got A Pony (She Likes To Ride)
TTITLE8=What About Me?
TTITLE9=Racket In The Room
TTITLE10=Walkin' Chains
EXTD=
EXTT0=
EXTT1=
EXTT2=
EXTT3=
EXTT4=
EXTT5=
EXTT6=
EXTT7=
EXTT8=
EXTT9=
EXTT10=
PLAYORDER=
